<svg width="149" height="23" viewBox="0 0 149 23" fill="none" xmlns="http://www.w3.org/2000/svg">
<g clip-path="url(#clip0_1443_390)">
<path fill-rule="evenodd" clip-rule="evenodd" d="M4.36113 8.56557H0.481084C0.481084 7.84394 0.522917 7.31057 0.627501 6.94453C0.721626 6.57848 0.909876 6.25427 1.17133 5.9719C1.64196 5.48036 2.3845 5.16661 3.41988 5.03065C3.90096 4.9679 4.6958 4.93652 5.79392 4.93652C7.7078 4.93652 9.03601 5.13523 9.80993 5.53265C10.7303 6.02419 11.2636 6.80857 11.3996 7.90669C11.4728 8.49236 11.5146 8.93161 11.5146 9.21399V16.859H7.65551L7.79146 14.9452H7.69734C7.4568 15.625 7.12213 16.1165 6.69334 16.4302C6.35867 16.6708 5.99263 16.8172 5.60567 16.8904C5.18734 16.9532 4.6958 16.9845 4.12059 16.9845C3.28392 16.9845 2.62504 16.9113 2.1335 16.7754C1.64196 16.6394 1.22363 16.4093 0.878501 16.0851C0.292834 15.5308 0 14.5791 0 13.2195C0 11.9959 0.282375 11.1383 0.836667 10.6259C1.54783 9.97745 2.66688 9.65324 4.20425 9.65324C5.3965 9.65324 6.24363 9.77874 6.73517 10.0297C7.06984 10.2075 7.35221 10.5736 7.5823 11.1383H7.64505V8.81657C7.64505 8.30411 7.54046 7.93807 7.3313 7.7289C7.03846 7.43607 6.54692 7.27919 5.8253 7.27919C5.13505 7.27919 4.6958 7.43607 4.50755 7.76028C4.4448 7.90669 4.38205 8.17861 4.36113 8.56557ZM5.6475 11.975C4.99909 11.975 4.53892 12.0691 4.24609 12.2574C3.99509 12.4247 3.85913 12.728 3.85913 13.1777C3.85913 13.7425 4.016 14.098 4.34021 14.2549C4.63305 14.3909 5.18734 14.4536 6.00309 14.4536C6.65151 14.4536 7.0803 14.3595 7.32084 14.1712C7.54046 13.983 7.65551 13.6274 7.65551 13.1149C7.65551 12.7384 7.57184 12.477 7.41496 12.3515C7.14305 12.1005 6.54692 11.975 5.6475 11.975Z" fill="#1d3d7c"/>
<path d="M24.4307 8.56529H20.7807L20.7389 8.24108C20.6552 7.89595 20.5088 7.67633 20.3101 7.57174C20.0904 7.4567 19.6303 7.39395 18.9505 7.39395C18.2289 7.39395 17.7687 7.4567 17.57 7.57174C17.319 7.7077 17.2039 7.97962 17.2039 8.38749C17.2039 8.88949 17.4027 9.19279 17.8105 9.28691C17.9465 9.31829 18.7309 9.37058 20.1532 9.44379C21.4187 9.50654 22.2867 9.60066 22.7364 9.7157C23.594 9.93533 24.1901 10.3432 24.5248 10.9393C24.8176 11.4413 24.9536 12.1002 24.9536 12.916C24.9536 14.2755 24.5562 15.2795 23.7613 15.928C23.228 16.3568 22.6318 16.6287 21.9834 16.7437C21.1572 16.8901 20.1637 16.9633 19.0237 16.9633C17.3294 16.9633 16.1163 16.8274 15.3947 16.5555C14.3697 16.179 13.7527 15.4678 13.5435 14.4324C13.4808 14.1396 13.4494 13.7108 13.4494 13.146H17.3608C17.3713 13.2506 17.3713 13.3343 17.3713 13.397C17.3713 13.8258 17.4863 14.0977 17.7164 14.2337C17.9674 14.3697 18.4799 14.4429 19.2433 14.4429C20.1114 14.4429 20.6866 14.3487 20.9585 14.1605C21.1467 14.0245 21.2409 13.784 21.2409 13.4493C21.2409 13.0624 21.1677 12.7905 21.0212 12.6231C20.8121 12.393 20.331 12.278 19.5675 12.2675C17.57 12.2466 16.2209 12.1107 15.5097 11.8806C14.7253 11.6191 14.1815 11.1799 13.8782 10.5733C13.6272 10.0922 13.5122 9.42287 13.5122 8.57574C13.5122 7.09066 13.9305 6.10757 14.7672 5.60557C15.175 5.35457 15.7189 5.18724 16.3987 5.08266C17.068 4.97807 18.0092 4.92578 19.2119 4.92578C20.7807 4.92578 21.8997 5.04082 22.5586 5.27091C23.5103 5.60557 24.1065 6.23307 24.3365 7.14295C24.3888 7.44624 24.4307 8.02145 24.4307 8.56529Z" fill="#1d3d7c"/>
<path fill-rule="evenodd" clip-rule="evenodd" d="M34.021 12.916H37.7755C37.786 13.0205 37.786 13.1042 37.786 13.146C37.786 14.171 37.5559 14.9867 37.1062 15.6037C36.6983 16.1685 36.0708 16.5555 35.2446 16.7542C34.638 16.9006 33.6863 16.9738 32.3895 16.9738C30.6638 16.9738 29.3984 16.7855 28.5826 16.409C27.495 15.8966 26.8361 14.9867 26.606 13.669C26.491 13.031 26.4282 12.027 26.4282 10.657C26.4282 8.99408 26.5851 7.81228 26.8988 7.11157C27.3486 6.10757 28.2271 5.45916 29.5239 5.15586C30.1723 4.99899 31.0613 4.92578 32.1908 4.92578C33.7177 4.92578 34.8576 5.10357 35.6211 5.4487C36.6774 5.92978 37.3467 6.87103 37.6186 8.25153C37.7232 8.77445 37.7755 9.47516 37.7755 10.3746C37.7755 10.636 37.7755 11.0439 37.765 11.6087H30.2141C30.2037 11.8178 30.1932 11.9642 30.1932 12.0688C30.1932 12.9369 30.3187 13.5225 30.5593 13.8154C30.8416 14.15 31.3855 14.3069 32.2012 14.3069C33.0274 14.3069 33.5503 14.1605 33.77 13.8572C33.9373 13.6585 34.0105 13.3447 34.021 12.916ZM34.0837 9.47516C34.0733 9.28691 34.0733 9.16141 34.0733 9.10912C34.0628 8.57574 33.9582 8.2097 33.77 8.01099C33.5817 7.84366 33.3412 7.72862 33.0588 7.68678C32.8078 7.66587 32.4836 7.64495 32.0757 7.64495C31.5423 7.64495 31.1658 7.69724 30.9358 7.79137C30.5593 7.9587 30.3396 8.28291 30.2978 8.78491C30.2873 8.86858 30.2769 9.0882 30.2769 9.4647H34.0837V9.47516Z" fill="#1d3d7c"/>
<path d="M43.6845 0H39.8463V16.8588H43.6845V0Z" fill="#1d3d7c"/>
<path d="M56.7156 8.56529H53.0656L53.0238 8.24108C52.9401 7.89595 52.7937 7.67633 52.595 7.57174C52.3754 7.4567 51.9152 7.39395 51.2354 7.39395C50.5138 7.39395 50.0536 7.4567 49.8549 7.57174C49.6039 7.7077 49.4889 7.97962 49.4889 8.38749C49.4889 8.88949 49.6876 9.19279 50.0954 9.28691C50.2314 9.31829 51.0158 9.37058 52.4381 9.44379C53.7036 9.50654 54.5716 9.60066 55.0213 9.7157C55.8789 9.93533 56.475 10.3432 56.8097 10.9393C57.1025 11.4413 57.2385 12.1002 57.2385 12.916C57.2385 14.2755 56.8411 15.2795 56.0462 15.928C55.5129 16.3568 54.9167 16.6287 54.2683 16.7437C53.4421 16.8901 52.4486 16.9633 51.3086 16.9633C49.6144 16.9633 48.4012 16.8274 47.6796 16.5555C46.6546 16.179 46.0376 15.4678 45.8284 14.4324C45.7657 14.1396 45.7343 13.7108 45.7343 13.146H49.6562C49.6667 13.2506 49.6667 13.3343 49.6667 13.397C49.6667 13.8258 49.7817 14.0977 50.0118 14.2337C50.2628 14.3697 50.7752 14.4429 51.5387 14.4429C52.4067 14.4429 52.9819 14.3487 53.2539 14.1605C53.4421 14.0245 53.5362 13.784 53.5362 13.4493C53.5362 13.0624 53.463 12.7905 53.3166 12.6231C53.1074 12.393 52.6264 12.278 51.8629 12.2675C49.8654 12.2466 48.5162 12.1107 47.8051 11.8806C47.0207 11.6191 46.4769 11.1799 46.1736 10.5733C45.9226 10.0922 45.8075 9.42287 45.8075 8.57574C45.8075 7.09066 46.2259 6.10757 47.0625 5.60557C47.4704 5.35457 48.0142 5.18724 48.694 5.08266C49.3634 4.97807 50.3046 4.92578 51.5073 4.92578C53.0761 4.92578 54.1951 5.04082 54.854 5.27091C55.8057 5.60557 56.4018 6.23307 56.6319 7.14295C56.6842 7.44624 56.7156 8.02145 56.7156 8.56529Z" fill="#1d3d7c"/>
<path fill-rule="evenodd" clip-rule="evenodd" d="M63.1684 8.56557H59.2779C59.2779 7.84394 59.3302 7.31057 59.4243 6.94453C59.5185 6.57848 59.7067 6.25427 59.9682 5.9719C60.4388 5.48036 61.1813 5.16661 62.2167 5.03065C62.6978 4.9679 63.4926 4.93652 64.5908 4.93652C66.5046 4.93652 67.8328 5.13523 68.6068 5.53265C69.5271 6.02419 70.0605 6.80857 70.1964 7.90669C70.2696 8.49236 70.3115 8.93161 70.3115 9.21399V16.859H66.4733L66.6092 14.9452H66.5151C66.2745 15.625 65.9399 16.1165 65.5111 16.4302C65.1764 16.6708 64.8104 16.8172 64.4234 16.8904C64.0051 16.9532 63.5135 16.9845 62.9383 16.9845C62.1017 16.9845 61.4428 16.9113 60.9512 16.7754C60.4597 16.6394 60.0414 16.4093 59.6962 16.0851C59.1106 15.5204 58.8177 14.5687 58.8177 13.2195C58.8177 11.9959 59.1001 11.1383 59.6544 10.6259C60.3656 9.97745 61.4846 9.65324 63.022 9.65324C64.2143 9.65324 65.0614 9.77874 65.5529 10.0297C65.8876 10.2075 66.17 10.5736 66.4001 11.1383H66.4628V8.81657C66.4628 8.30411 66.3582 7.93807 66.149 7.7289C65.8562 7.43607 65.3647 7.27919 64.643 7.27919C63.9528 7.27919 63.5135 7.43607 63.3253 7.76028C63.2416 7.90669 63.1893 8.17861 63.1684 8.56557ZM64.4548 11.975C63.8064 11.975 63.3462 12.0691 63.0534 12.2574C62.8024 12.4247 62.6664 12.728 62.6664 13.1777C62.6664 13.7425 62.8233 14.098 63.1475 14.2549C63.4403 14.3909 63.9946 14.4536 64.8104 14.4536C65.4588 14.4536 65.8876 14.3595 66.1281 14.1712C66.3478 13.983 66.4628 13.6274 66.4628 13.1149C66.4628 12.7384 66.3791 12.477 66.2327 12.3515C65.9399 12.1005 65.3542 11.975 64.4548 11.975Z" fill="#1d3d7c"/>
<path fill-rule="evenodd" clip-rule="evenodd" d="M141.867 8.56557H137.977C137.977 7.84394 138.029 7.31057 138.123 6.94453C138.217 6.57848 138.406 6.25427 138.667 5.9719C139.138 5.48036 139.88 5.16661 140.916 5.03065C141.397 4.9679 142.192 4.93652 143.29 4.93652C145.204 4.93652 146.532 5.13523 147.306 5.53265C148.226 6.02419 148.76 6.80857 148.896 7.90669C148.969 8.49236 149.011 8.93161 149.011 9.21399V16.859H145.162L145.298 14.9452H145.204C144.963 15.625 144.628 16.1165 144.2 16.4302C143.865 16.6708 143.499 16.8172 143.112 16.8904C142.694 16.9532 142.202 16.9845 141.627 16.9845C140.79 16.9845 140.131 16.9113 139.64 16.7754C139.148 16.6394 138.73 16.4093 138.385 16.0851C137.799 15.5204 137.506 14.5687 137.506 13.2195C137.506 11.9959 137.789 11.1383 138.343 10.6259C139.054 9.97745 140.173 9.65324 141.711 9.65324C142.903 9.65324 143.75 9.77874 144.242 10.0297C144.576 10.2075 144.859 10.5736 145.089 11.1383H145.151V8.81657C145.151 8.30411 145.047 7.93807 144.838 7.7289C144.545 7.43607 144.053 7.27919 143.332 7.27919C142.641 7.27919 142.202 7.43607 142.014 7.76028C141.941 7.90669 141.888 8.17861 141.867 8.56557ZM143.154 11.975C142.505 11.975 142.045 12.0691 141.752 12.2574C141.501 12.4247 141.365 12.728 141.365 13.1777C141.365 13.7425 141.522 14.098 141.847 14.2549C142.139 14.3909 142.694 14.4536 143.509 14.4536C144.158 14.4536 144.587 14.3595 144.827 14.1712C145.047 13.983 145.162 13.6274 145.162 13.1149C145.162 12.7384 145.078 12.477 144.932 12.3515C144.639 12.1005 144.053 11.975 143.154 11.975Z" fill="#f7941d"/>
<path d="M72.7796 5.05128H76.6178L76.4714 7.36258H76.5341C76.7851 6.59912 77.1094 6.03437 77.4963 5.67878C78.0401 5.17678 78.8664 4.92578 79.9749 4.92578C81.8261 4.92578 83.0392 5.4487 83.6249 6.49453C83.9073 6.98607 84.0432 7.66587 84.0432 8.52345V16.8588H80.2155V10.1027C80.2155 9.3392 80.1527 8.82674 80.0272 8.56528C79.839 8.14695 79.4102 7.93778 78.7304 7.93778C77.329 7.93778 76.6178 8.60712 76.6178 9.93533V16.8588H72.7796V5.05128Z" fill="#1d3d7c"/>
<path d="M90.5274 0V9.51709H91.1968L93.529 5.06184H97.7751L94.2193 10.7093L97.7751 16.8588H93.4976L91.1968 12.0166H90.5274V16.8588H86.6892V0H90.5274Z" fill="#f7941d"/>
<path d="M104.427 5.00977C105.933 5.00977 107.01 5.13527 107.658 5.38627C108.694 5.78368 109.363 6.57852 109.677 7.77077C109.833 8.35644 109.907 9.23494 109.907 10.3958C109.907 11.8077 109.834 12.9058 109.698 13.6588C109.562 14.4223 109.321 15.0184 108.986 15.4681C108.484 16.127 107.71 16.5349 106.675 16.7127C105.974 16.8277 105.148 16.88 104.217 16.88C102.921 16.88 101.916 16.7859 101.195 16.6185C100.473 16.4407 99.898 16.1374 99.4692 15.7191C98.7999 15.0707 98.4339 14.1504 98.3606 12.9476C98.3293 12.362 98.3083 11.6299 98.3083 10.7514C98.3083 9.10944 98.4234 7.97993 98.6639 7.36289C99.1136 6.22293 99.9922 5.51177 101.31 5.22939C101.885 5.07252 102.931 5.00977 104.427 5.00977ZM104.102 7.82306C103.423 7.82306 102.962 7.91718 102.732 8.11589C102.324 8.46102 102.126 9.3186 102.126 10.6991C102.126 12.2365 102.262 13.1882 102.544 13.5438C102.805 13.8784 103.328 14.0458 104.113 14.0458C104.981 14.0458 105.535 13.8261 105.786 13.3974C105.985 13.0418 106.089 12.5084 106.1 11.8077L106.11 10.469C106.11 9.30814 105.953 8.55514 105.629 8.21002C105.368 7.94856 104.866 7.82306 104.102 7.82306Z" fill="#f7941d"/>
<path d="M111.831 5.05128H115.669L115.523 7.36258H115.586C115.837 6.59912 116.161 6.03437 116.548 5.67878C117.092 5.17678 117.918 4.92578 119.026 4.92578C120.878 4.92578 122.091 5.4487 122.676 6.49453C122.959 6.98607 123.095 7.66587 123.095 8.52345V16.8588H119.257V10.1027C119.257 9.3392 119.194 8.82674 119.068 8.55483C118.88 8.13649 118.441 7.92733 117.771 7.92733C116.36 7.92733 115.659 8.59666 115.659 9.92487V16.8483H111.821V5.05128H111.831Z" fill="#f7941d"/>
<path d="M136.555 5.05147L133.679 17.6015C133.354 19.0447 132.967 20.0383 132.528 20.5926C132.037 21.2201 131.346 21.628 130.447 21.8371C129.945 21.9522 129.286 22.0149 128.449 22.0149C128.23 22.0149 127.885 22.0045 127.404 21.994H127.205V19.348C127.435 19.3585 127.644 19.3585 127.822 19.3585C128.303 19.3585 128.669 19.2853 128.941 19.1389C129.495 18.8356 129.819 18.0617 129.914 16.8171H127.801L124.318 5.05147H128.345L129.527 9.83094L130.123 12.2259L130.395 13.4182L130.667 14.6104H130.74C131.022 13.073 131.325 11.4834 131.66 9.82048L132.633 5.04102H136.555V5.05147Z" fill="#f7941d"/>
</g>
<defs>
<clipPath id="clip0_1443_390">
<rect width="149" height="22.0148" fill="#f7941d"/>
</clipPath>
</defs>
</svg>
